HIERARCHY
ROOT root
{
	OFFSET	0	13.1	24.9
	CHANNELS 6  Xposition Yposition Zposition Xrotation Yrotation Zrotation
	JOINT spine_1
	{
		OFFSET	0	9.99999	0
		CHANNELS 3  Xrotation Yrotation Zrotation
		JOINT spine_2
		{
			OFFSET	0	112	-10
			CHANNELS 3  Xrotation Yrotation Zrotation
			JOINT spine_3
			{
				OFFSET	0	206.5	19.3
				CHANNELS 3  Xrotation Yrotation Zrotation
				JOINT spine_4
				{
					OFFSET	0	110.4	14.6
					CHANNELS 3  Xrotation Yrotation Zrotation
					JOINT neck_1
					{
						OFFSET	0	71.8	-50.3
						CHANNELS 3  Xrotation Yrotation Zrotation
						JOINT neck_2
						{
							OFFSET	0	86.2	-25.8
							CHANNELS 3  Xrotation Yrotation Zrotation
							JOINT head_ee
							{
								OFFSET	0	179.8	-8.7
								CHANNELS 3  Xrotation Yrotation Zrotation
								End Site
								{
									OFFSET	1	0	0
								}
							}
						}
					}
					JOINT left_clavicle
					{
						OFFSET	-43.2	22.4	-70.8
						CHANNELS 3  Xrotation Yrotation Zrotation
						JOINT left_shoulder
						{
							OFFSET	-93.9	-5.79999	48.7
							CHANNELS 3  Xrotation Yrotation Zrotation
							JOINT left_elbow
							{
								OFFSET	-291.4	-30.8	15.2
								CHANNELS 3  Xrotation Yrotation Zrotation
								JOINT left_lowarm_twist
								{
									OFFSET	-110.7	-3.89999	13.6
									CHANNELS 3  Xrotation Yrotation Zrotation
									JOINT left_hand
									{
										OFFSET	-110.7	-3.89999	13.6
										CHANNELS 3  Xrotation Yrotation Zrotation
										JOINT left_ee
										{
											OFFSET	-80.8	-5.10001	12.1
											CHANNELS 3  Xrotation Yrotation Zrotation
											End Site
											{
												OFFSET	1	0	0
											}
										}
									}
								}
							}
						}
					}
					JOINT right_clavicle
					{
						OFFSET	43.2	22.4	-70.8
						CHANNELS 3  Xrotation Yrotation Zrotation
						JOINT right_shoulder
						{
							OFFSET	93.9	-5.79999	48.7
							CHANNELS 3  Xrotation Yrotation Zrotation
							JOINT right_elbow
							{
								OFFSET	291.4	-30.8	15.2
								CHANNELS 3  Xrotation Yrotation Zrotation
								JOINT right_lowarm_twist
								{
									OFFSET	110.7	-3.89999	13.6
									CHANNELS 3  Xrotation Yrotation Zrotation
									JOINT right_hand
									{
										OFFSET	110.7	-3.89999	13.6
										CHANNELS 3  Xrotation Yrotation Zrotation
										JOINT right_ee
										{
											OFFSET	80.8	-5.10001	12.1
											CHANNELS 3  Xrotation Yrotation Zrotation
											End Site
											{
												OFFSET	1	0	0
											}
										}
									}
								}
							}
						}
					}
				}
			}
		}
	}
	JOINT left_hip
	{
		OFFSET	-82.8	-127.5	0.300001
		CHANNELS 3  Xrotation Yrotation Zrotation
		JOINT left_knee
		{
			OFFSET	-28.2	-396.7	2.2
			CHANNELS 3  Xrotation Yrotation Zrotation
			JOINT left_ankle
			{
				OFFSET	-11.7	-411.3	35.4
				CHANNELS 3  Xrotation Yrotation Zrotation
				JOINT left_toes
				{
					OFFSET	0	-60	-88.6
					CHANNELS 3  Xrotation Yrotation Zrotation
					JOINT left_foot_ee
					{
						OFFSET	-22.5	-16.5	-42.2
						CHANNELS 3  Xrotation Yrotation Zrotation
						End Site
						{
							OFFSET	1	0	0
						}
					}
				}
			}
		}
	}
	JOINT right_hip
	{
		OFFSET	82.8	-127.5	0.300001
		CHANNELS 3  Xrotation Yrotation Zrotation
		JOINT right_knee
		{
			OFFSET	28.2	-396.7	2.2
			CHANNELS 3  Xrotation Yrotation Zrotation
			JOINT right_ankle
			{
				OFFSET	11.7	-411.3	35.4
				CHANNELS 3  Xrotation Yrotation Zrotation
				JOINT right_toes
				{
					OFFSET	0	-60	-88.6
					CHANNELS 3  Xrotation Yrotation Zrotation
					JOINT right_foot_ee
					{
						OFFSET	22.5	-16.5	-42.2
						CHANNELS 3  Xrotation Yrotation Zrotation
						End Site
						{
							OFFSET	1	0	0
						}
					}
				}
			}
		}
	}
}
MOTION
Frames: 7
Frame Time: 0.02
2604.45394405 759.028 -1540.93795209 21.3774158166 74.7696837701 -13.2266219387 -0.188386 -0.0737524 -1.78208 -0.18662 0.039777 -1.78316 -0.187027 0.419462 -1.73359 -0.191194 0.140454 -1.77807 -7.04199 11.9127 2.82067 -7.03206 20.131 5.24965 -0.0 0.0 -0.0 6.68073 23.0368 12.0254 -30.174 -20.6747 59.3206 0.576713 -15.9441 0.0807655 -69.4394 -6.4745 5.29687 -1.40304 15.7018 -2.23926 -0.0 0.0 -0.0 6.66326 9.25468 -12.708 -5.74329 33.8199 -65.2298 0.90022 24.0338 -0.191629 -10.8637 0.506898 -1.29108 2.33866 -29.8181 -24.9143 0.0 0.0 0.0 9.59868 10.4542 -21.8161 -45.6106 -0.861729 6.76516 2.4249 1.46763 -0.355244 29.2489 -0.0 -0.0 -0.0 0.0 -0.0 2.59274 14.79 -13.8289 6.49937 0.321658 0.944622 1.05723 20.6422 0.176461 -2.23058 0.0 0.0 0.0 0.0 0.0 
2595.30524059 758.553 -1535.66838568 22.4422779728 76.5968030912 -14.2499129022 -0.214113 -0.0312035 -1.90358 -0.212101 0.0899673 -1.90171 -0.214179 0.494714 -1.83846 -0.218841 0.19821 -1.89349 -7.23343 11.8484 2.56191 -7.23456 20.2245 5.01108 -0.0 0.0 -0.0 6.58713 23.2444 11.8735 -29.6583 -21.0641 60.1202 0.511717 -14.2245 0.0638491 -69.5604 -6.48993 5.2981 -1.48703 16.252 -2.50328 -0.0 0.0 -0.0 6.61538 8.60261 -12.6339 -4.33215 33.7436 -64.7597 0.978805 25.8669 -0.224783 -11.1356 0.522688 -1.32207 2.14377 -29.2869 -23.6383 0.0 0.0 0.0 11.2468 11.869 -22.5646 -43.1313 -0.6779 6.43098 2.65844 1.68741 -0.389032 28.8656 -0.0 -0.0 -0.0 0.0 -0.0 3.77398 16.2181 -14.492 6.01667 0.294095 0.875752 1.81614 18.6627 0.296946 -2.10146 0.0 0.0 0.0 0.0 0.0 
2586.37292151 758.542 -1529.36408557 24.2633449376 79.22112875 -16.144207182 -0.138875 -0.304628 -1.85552 -0.136979 -0.18596 -1.87114 -0.129806 0.215737 -1.86794 -0.134666 -0.0819226 -1.87857 -6.1794 13.0408 2.267 -6.13098 22.5027 4.7754 -0.0 0.0 -0.0 6.07496 22.9286 11.1637 -29.7997 -21.129 60.9958 0.498375 -13.8681 0.0606109 -69.2357 -6.44851 5.29474 -0.901205 10.3068 -1.49731 -0.0 0.0 -0.0 7.0916 5.54972 -13.7187 -3.73758 33.3649 -63.364 1.25038 31.7729 -0.355875 -12.4548 0.601403 -1.47139 1.40267 -26.7536 -18.6253 0.0 0.0 0.0 10.6133 11.3092 -20.4984 -27.1288 0.143286 4.12202 -3.82816 2.68247 0.567884 26.7568 -0.0 -0.0 -0.0 0.0 -0.0 3.92105 13.4044 -14.5188 4.88428 0.231725 0.713314 4.64385 15.4781 0.733036 -3.79891 0.0 0.0 0.0 0.0 0.0 
2577.60741597 757.845 -1521.7591473 28.4030779743 81.622234945 -20.6443104403 -0.120507 -0.46037 -1.97907 -0.11839 -0.33353 -2.00434 -0.105354 0.0988864 -2.02948 -0.111033 -0.222806 -2.01964 -5.29065 14.066 3.19559 -5.17842 23.5713 5.73483 -0.0 0.0 -0.0 5.73062 22.938 10.6708 -29.7844 -21.4431 61.9565 0.502032 -13.9659 0.0614905 -69.9487 -6.53947 5.3018 0.147702 8.75895 4.59308 -0.0 0.0 -0.0 8.93191 5.07696 -17.5587 -11.0994 32.9563 -56.0634 1.54672 37.4567 -0.524417 -13.5286 0.668007 -1.59157 0.580272 -25.0907 -13.3086 0.0 0.0 0.0 10.669 15.2751 -20.2544 -13.447 0.316142 2.03469 2.79195 1.09287 -0.408932 20.7562 -0.0 -0.0 -0.0 0.0 -0.0 5.02012 14.8397 -13.8631 2.28528 0.100831 0.336149 8.57942 10.6407 1.29293 -4.26766 0.0 0.0 0.0 0.0 0.0 
2565.58992798 759.616 -1514.10311537 18.3486511837 81.7800723468 -11.0804104743 0.0458738 -0.240385 -1.9816 0.0480513 -0.113829 -1.99288 0.0530729 0.30584 -1.97257 0.0476427 -0.00946365 -1.9961 -5.87075 15.5464 5.94886 -5.73086 24.4052 8.87296 -0.0 0.0 -0.0 5.43374 22.7795 10.2554 -29.4512 -21.7366 62.6098 0.549173 -15.2189 0.0733679 -71.1587 -6.69398 5.31115 2.53005 2.8933 18.2942 -0.0 0.0 -0.0 10.2298 -0.864377 -20.0827 -20.0378 32.4188 -47.5186 2.43295 50.3089 -1.14263 -18.8387 1.02996 -2.1667 -0.147654 -19.8554 -7.13129 0.0 0.0 0.0 8.23822 19.1956 -17.4865 -0.760479 0.0305655 0.112701 9.79277 4.84839 -1.39492 14.0274 -0.0 -0.0 -0.0 0.0 -0.0 5.52412 13.8123 -13.1299 1.68537 0.0730623 0.248291 10.1695 6.58985 1.49187 -5.10056 0.0 0.0 0.0 0.0 0.0 
2537.1895156 760.797 -1497.08630551 20.9426722669 84.7611799218 -13.7380451917 0.536653 -0.178389 -2.27426 0.53953 -0.0333486 -2.281 0.541784 0.425843 -2.24116 0.534781 0.0666451 -2.28027 -6.79804 16.955 9.16495 -6.58511 24.9249 12.4929 -0.0 0.0 -0.0 5.39811 22.8742 10.2001 -29.2396 -21.6858 62.9945 0.625261 -17.2098 0.0946172 -71.7085 -6.76422 5.31432 4.15851 -0.841862 28.7042 -0.0 0.0 -0.0 10.6303 -8.299 -20.2468 -26.6557 31.1065 -42.7491 3.12881 57.1578 -1.70468 -21.2246 1.20969 -2.41381 -0.616029 -14.4611 -2.08688 0.0 0.0 0.0 5.56524 22.9603 -15.569 4.16428 -0.193747 -0.609415 19.257 1.88055 -2.64948 12.1181 -0.0 -0.0 -0.0 0.0 -0.0 4.40841 17.165 -12.3579 1.92465 0.0840276 0.283368 12.4611 -3.39592 1.76063 -4.21355 0.0 0.0 0.0 0.0 0.0 
2537.09938467 760.797 -1496.0432536 21.8629600019 84.9721116711 -14.6620372035 0.536653 -0.178389 -2.27426 0.53953 -0.0333486 -2.281 0.541784 0.425843 -2.24116 0.534781 0.0666451 -2.28027 -6.79804 16.955 9.16495 -6.58511 24.9249 12.4929 -0.0 0.0 -0.0 5.39811 22.8742 10.2001 -29.2396 -21.6858 62.9945 0.625261 -17.2098 0.0946172 -71.7085 -6.76422 5.31432 4.15851 -0.841862 28.7042 -0.0 0.0 -0.0 10.6303 -8.299 -20.2468 -26.6557 31.1065 -42.7491 3.12881 57.1578 -1.70468 -21.2246 1.20969 -2.41381 -0.616029 -14.4611 -2.08688 0.0 0.0 0.0 5.56524 22.9603 -15.569 4.16428 -0.193747 -0.609415 19.257 1.88055 -2.64948 12.1181 -0.0 -0.0 -0.0 0.0 -0.0 4.40841 17.165 -12.3579 1.92465 0.0840276 0.283368 12.4611 -3.39592 1.76063 -4.21355 0.0 0.0 0.0 0.0 0.0 
